FFmpeg version SVN-r25716, Copyright (c) 2000-2010 the FFmpeg developers  built on Nov 10 2010 12:23:18 with gcc 4.1.2 20080704 (Red Hat 4.1.2-48)  configuration: --enable-libmp3lame --enable-shared --disable-mmx --arch=x86_64  libavutil     50.33. 0 / 50.33. 0  libavcore      0.12. 1 /  0.12. 1  libavcodec    52.94. 4 / 52.94. 4  libavformat   52.84. 0 / 52.84. 0  libavdevice   52. 2. 2 / 52. 2. 2  libavfilter    1.59. 0 /  1.59. 0  libswscale     0.12. 0 /  0.12. 0Seems stream 0 codec frame rate differs from container frame rate: 600.00 (600/1) -> 15.00 (15/1)Input #0, mov,mp4,m4a,3gp,3g2,mj2, from '/RAID10/data/converted_video_files/42160.mov':  Metadata:    major_brand     : qt      minor_version   : 537199360    compatible_brands: qt    Duration: 00:00:09.60, start: 0.000000, bitrate: 10744 kb/s    Stream #0.0(eng): Video: mjpeg, yuvj420p, 1388x1040 [PAR 1:1 DAR 347:260], 10742 kb/s, 15 fps, 15 tbr, 600 tbn, 600 tbc[buffer @ 0x199aa510] w:1388 h:1040 pixfmt:yuvj420p[ffsink @ 0x199a9630] auto-inserting filter 'auto-inserted scaler 0' between the filter 'src' and the filter 'out'[scale @ 0x199e0740] w:1388 h:1040 fmt:yuvj420p -> w:1388 h:1040 fmt:yuv420p flags:0x4Output #0, flv, to '/RAID10/data/converted_video_files/42160.flv':  Metadata:    encoder         : Lavf52.84.0    Stream #0.0(eng): Video: flv, yuv420p, 1388x1040 [PAR 1:1 DAR 347:260], q=2-31, 600 kb/s, 1k tbn, 24 tbcStream mapping:  Stream #0.0 -> #0.0Press [q] to stop encodingframe=    7 fps=  0 q=9.5 size=     486kB time=0.46 bitrate=8667.0kbits/s    frame=   15 fps= 13 q=30.1 size=     560kB time=0.96 bitrate=4786.0kbits/s    frame=   24 fps= 14 q=31.0 size=     671kB time=1.58 bitrate=3469.6kbits/s    frame=   31 fps= 14 q=31.0 size=     769kB time=2.04 bitrate=3083.8kbits/s    frame=   40 fps= 14 q=31.0 size=     926kB time=2.62 bitrate=2891.3kbits/s    frame=   47 fps= 14 q=31.0 size=    1003kB time=3.12 bitrate=2629.9kbits/s    frame=   56 fps= 14 q=31.0 size=    1069kB time=3.71 bitrate=2360.9kbits/s    frame=   65 fps= 15 q=31.0 size=    1159kB time=4.29 bitrate=2213.2kbits/s    frame=   73 fps= 15 q=31.0 size=    1275kB time=4.83 bitrate=2161.5kbits/s    frame=   82 fps= 15 q=31.0 size=    1387kB time=5.46 bitrate=2081.2kbits/s    frame=   89 fps= 15 q=31.0 size=    1488kB time=5.92 bitrate=2059.9kbits/s    frame=   98 fps= 15 q=31.0 size=    1562kB time=6.50 bitrate=1968.8kbits/s    frame=  106 fps= 15 q=31.0 size=    1688kB time=7.04 bitrate=1963.2kbits/s    frame=  113 fps= 15 q=31.0 size=    1765kB time=7.50 bitrate=1928.3kbits/s    frame=  121 fps= 15 q=31.0 size=    1898kB time=8.04 bitrate=1933.1kbits/s    frame=  130 fps= 15 q=31.0 size=    2003kB time=8.62 bitrate=1902.4kbits/s    frame=  138 fps= 15 q=31.0 size=    2163kB time=9.17 bitrate=1932.7kbits/s    frame=  144 fps= 15 q=31.0 Lsize=    2299kB time=9.58 bitrate=1965.4kbits/s    video:2297kB audio:0kB global headers:0kB muxing overhead 0.106886%